<mxfile host="65bd71144e">
    <diagram id="GcC-JIHAXM6IIX27OKor" name="Block-diagram">
        <mxGraphModel dx="485" dy="292" grid="1" gridSize="10" guides="1" tooltips="1" connect="1" arrows="1" fold="1" page="1" pageScale="1" pageWidth="1169" pageHeight="827" math="0" shadow="0">
            <root>
                <mxCell id="0"/>
                <mxCell id="1" parent="0"/>
                <mxCell id="7" value="clk_in" style="text;html=1;strokeColor=none;fillColor=none;align=center;verticalAlign=middle;whiteSpace=wrap;rounded=0;shadow=0;dashed=1;strokeWidth=2;" parent="1" vertex="1">
                    <mxGeometry x="240" y="260" width="40" height="40" as="geometry"/>
                </mxCell>
                <mxCell id="81" style="edgeStyle=orthogonalEdgeStyle;html=1;exitX=1;exitY=0.5;exitDx=0;exitDy=0;entryX=0.5;entryY=0;entryDx=0;entryDy=0;strokeWidth=1;fontSize=16;startArrow=none;startFill=0;endArrow=blockThin;endFill=1;" parent="1" source="8" target="71" edge="1">
                    <mxGeometry relative="1" as="geometry"/>
                </mxCell>
                <mxCell id="8" value="reset" style="text;html=1;strokeColor=none;fillColor=none;align=center;verticalAlign=middle;whiteSpace=wrap;rounded=0;shadow=0;dashed=1;strokeWidth=2;" parent="1" vertex="1">
                    <mxGeometry x="240" y="220" width="40" height="40" as="geometry"/>
                </mxCell>
                <mxCell id="10" value="divisor[15:0]" style="text;html=1;strokeColor=none;fillColor=none;align=center;verticalAlign=middle;whiteSpace=wrap;rounded=0;shadow=0;dashed=1;strokeWidth=2;" parent="1" vertex="1">
                    <mxGeometry x="200" y="340" width="80" height="40" as="geometry"/>
                </mxCell>
                <mxCell id="12" value="clk_out" style="text;html=1;strokeColor=none;fillColor=none;align=center;verticalAlign=middle;whiteSpace=wrap;rounded=0;shadow=0;dashed=1;strokeWidth=2;" parent="1" vertex="1">
                    <mxGeometry x="1000" y="345" width="60" height="30" as="geometry"/>
                </mxCell>
                <mxCell id="27" style="edgeStyle=elbowEdgeStyle;html=1;exitX=0;exitY=0.5;exitDx=0;exitDy=0;strokeColor=default;strokeWidth=4;startArrow=blockThin;startFill=1;endArrow=none;endFill=0;entryX=1;entryY=0.5;entryDx=0;entryDy=0;" parent="1" source="83" target="10" edge="1">
                    <mxGeometry relative="1" as="geometry">
                        <mxPoint x="320" y="360" as="targetPoint"/>
                        <mxPoint x="400" y="360" as="sourcePoint"/>
                    </mxGeometry>
                </mxCell>
                <mxCell id="59" style="edgeStyle=none;html=1;exitX=1;exitY=0.5;exitDx=0;exitDy=0;entryX=0;entryY=0.5;entryDx=0;entryDy=0;strokeWidth=1;" parent="1" source="83" target="33" edge="1">
                    <mxGeometry relative="1" as="geometry">
                        <mxPoint x="520" y="360" as="sourcePoint"/>
                    </mxGeometry>
                </mxCell>
                <mxCell id="61" style="edgeStyle=none;html=1;exitX=0.5;exitY=1;exitDx=0;exitDy=0;entryX=0.5;entryY=0;entryDx=0;entryDy=0;strokeWidth=4;" parent="1" source="33" target="60" edge="1">
                    <mxGeometry relative="1" as="geometry"/>
                </mxCell>
                <mxCell id="78" style="edgeStyle=orthogonalEdgeStyle;html=1;exitX=0.5;exitY=0;exitDx=0;exitDy=0;strokeWidth=1;fontSize=16;startArrow=blockThin;startFill=1;endArrow=none;endFill=0;entryX=1;entryY=0.5;entryDx=0;entryDy=0;" parent="1" source="33" target="8" edge="1">
                    <mxGeometry relative="1" as="geometry">
                        <mxPoint x="320" y="240" as="targetPoint"/>
                        <Array as="points">
                            <mxPoint x="720" y="240"/>
                        </Array>
                    </mxGeometry>
                </mxCell>
                <mxCell id="79" style="edgeStyle=orthogonalEdgeStyle;html=1;exitX=0.25;exitY=0;exitDx=0;exitDy=0;strokeWidth=1;fontSize=16;startArrow=blockThin;startFill=1;endArrow=none;endFill=0;entryX=1;entryY=0.5;entryDx=0;entryDy=0;" parent="1" source="33" target="7" edge="1">
                    <mxGeometry relative="1" as="geometry">
                        <mxPoint x="319.99999999999955" y="280" as="targetPoint"/>
                        <Array as="points">
                            <mxPoint x="680" y="280"/>
                        </Array>
                    </mxGeometry>
                </mxCell>
                <mxCell id="33" value="&lt;font style=&quot;font-size: 16px;&quot;&gt;Counter register&lt;b&gt; cnt[15:0]&lt;/b&gt;&lt;/font&gt;" style="rounded=0;whiteSpace=wrap;html=1;shadow=0;strokeWidth=2;fillColor=default;gradientColor=none;" parent="1" vertex="1">
                    <mxGeometry x="640" y="320" width="160" height="80" as="geometry"/>
                </mxCell>
                <mxCell id="62" style="edgeStyle=orthogonalEdgeStyle;html=1;exitX=0;exitY=0.5;exitDx=0;exitDy=0;strokeWidth=4;startArrow=blockThin;startFill=1;endArrow=none;endFill=0;entryX=1;entryY=0.5;entryDx=0;entryDy=0;" parent="1" source="60" target="10" edge="1">
                    <mxGeometry relative="1" as="geometry">
                        <mxPoint x="320" y="360" as="targetPoint"/>
                        <Array as="points">
                            <mxPoint x="320" y="480"/>
                            <mxPoint x="320" y="360"/>
                        </Array>
                    </mxGeometry>
                </mxCell>
                <mxCell id="82" style="edgeStyle=orthogonalEdgeStyle;html=1;exitX=1;exitY=0.5;exitDx=0;exitDy=0;entryX=0;entryY=0.5;entryDx=0;entryDy=0;strokeWidth=1;fontSize=16;startArrow=none;startFill=0;endArrow=blockThin;endFill=1;" parent="1" source="60" target="72" edge="1">
                    <mxGeometry relative="1" as="geometry"/>
                </mxCell>
                <mxCell id="60" value="&lt;span style=&quot;font-size: 16px;&quot;&gt;Compare regsister&lt;/span&gt;" style="rounded=0;whiteSpace=wrap;html=1;shadow=0;strokeWidth=2;fillColor=default;gradientColor=none;" parent="1" vertex="1">
                    <mxGeometry x="640" y="440" width="160" height="80" as="geometry"/>
                </mxCell>
                <mxCell id="73" value="" style="group" parent="1" vertex="1" connectable="0">
                    <mxGeometry x="920" y="340" width="40" height="40" as="geometry"/>
                </mxCell>
                <mxCell id="71" value="&lt;span style=&quot;font-size: 16px;&quot;&gt;T&lt;/span&gt;" style="rounded=0;whiteSpace=wrap;html=1;shadow=0;strokeWidth=2;fillColor=default;gradientColor=none;" parent="73" vertex="1">
                    <mxGeometry width="40" height="40" as="geometry"/>
                </mxCell>
                <mxCell id="72" value="" style="triangle;whiteSpace=wrap;html=1;fontSize=16;" parent="73" vertex="1">
                    <mxGeometry y="15" width="10" height="10" as="geometry"/>
                </mxCell>
                <mxCell id="77" style="edgeStyle=orthogonalEdgeStyle;html=1;exitX=1;exitY=0.5;exitDx=0;exitDy=0;entryX=0;entryY=0.5;entryDx=0;entryDy=0;strokeWidth=2;fontSize=16;startArrow=none;startFill=0;endArrow=blockThin;endFill=1;" parent="1" source="71" target="12" edge="1">
                    <mxGeometry relative="1" as="geometry"/>
                </mxCell>
                <mxCell id="84" style="edgeStyle=orthogonalEdgeStyle;html=1;exitX=0.5;exitY=1;exitDx=0;exitDy=0;entryX=0;entryY=0.25;entryDx=0;entryDy=0;strokeWidth=1;" parent="1" source="83" target="60" edge="1">
                    <mxGeometry relative="1" as="geometry">
                        <mxPoint x="630" y="450" as="targetPoint"/>
                    </mxGeometry>
                </mxCell>
                <mxCell id="83" value="odd/even conditrion?" style="rhombus;whiteSpace=wrap;html=1;" parent="1" vertex="1">
                    <mxGeometry x="410" y="320" width="100" height="80" as="geometry"/>
                </mxCell>
            </root>
        </mxGraphModel>
    </diagram>
    <diagram id="4cMQbQ5ph97kJxN4G1bl" name="Flow-chart">
        <mxGraphModel dx="905" dy="704" grid="1" gridSize="10" guides="1" tooltips="1" connect="1" arrows="1" fold="1" page="1" pageScale="1" pageWidth="850" pageHeight="1100" math="0" shadow="0">
            <root>
                <mxCell id="0"/>
                <mxCell id="1" parent="0"/>
                <mxCell id="Rl6BkuAQ_NXk-KMuVqWP-3" style="edgeStyle=orthogonalEdgeStyle;html=1;entryX=0.5;entryY=0;entryDx=0;entryDy=0;strokeWidth=2;fontSize=16;startArrow=none;startFill=0;endArrow=blockThin;endFill=1;" edge="1" parent="1" source="Rl6BkuAQ_NXk-KMuVqWP-1" target="Rl6BkuAQ_NXk-KMuVqWP-2">
                    <mxGeometry relative="1" as="geometry"/>
                </mxCell>
                <mxCell id="Rl6BkuAQ_NXk-KMuVqWP-1" value="" style="ellipse;html=1;shape=endState;fillColor=#000000;strokeColor=#ff0000;fontSize=16;" vertex="1" parent="1">
                    <mxGeometry x="320" y="40" width="40" height="40" as="geometry"/>
                </mxCell>
                <mxCell id="Rl6BkuAQ_NXk-KMuVqWP-7" value="True" style="edgeStyle=orthogonalEdgeStyle;html=1;strokeWidth=2;fontSize=16;startArrow=none;startFill=0;endArrow=blockThin;endFill=1;" edge="1" parent="1" source="Rl6BkuAQ_NXk-KMuVqWP-2" target="Rl6BkuAQ_NXk-KMuVqWP-6">
                    <mxGeometry relative="1" as="geometry"/>
                </mxCell>
                <mxCell id="Rl6BkuAQ_NXk-KMuVqWP-19" value="False" style="edgeStyle=orthogonalEdgeStyle;html=1;strokeWidth=2;fontSize=16;startArrow=none;startFill=0;endArrow=blockThin;endFill=1;" edge="1" parent="1" source="Rl6BkuAQ_NXk-KMuVqWP-2" target="Rl6BkuAQ_NXk-KMuVqWP-18">
                    <mxGeometry relative="1" as="geometry"/>
                </mxCell>
                <mxCell id="Rl6BkuAQ_NXk-KMuVqWP-2" value="divisor % 2 = 0" style="rhombus;whiteSpace=wrap;html=1;fontSize=16;" vertex="1" parent="1">
                    <mxGeometry x="265" y="160" width="150" height="80" as="geometry"/>
                </mxCell>
                <mxCell id="Rl6BkuAQ_NXk-KMuVqWP-10" value="True" style="edgeStyle=orthogonalEdgeStyle;html=1;strokeWidth=2;fontSize=16;startArrow=none;startFill=0;endArrow=blockThin;endFill=1;" edge="1" parent="1" source="Rl6BkuAQ_NXk-KMuVqWP-6" target="Rl6BkuAQ_NXk-KMuVqWP-9">
                    <mxGeometry relative="1" as="geometry"/>
                </mxCell>
                <mxCell id="Rl6BkuAQ_NXk-KMuVqWP-17" value="False" style="edgeStyle=orthogonalEdgeStyle;html=1;exitX=0;exitY=0.5;exitDx=0;exitDy=0;strokeWidth=2;fontSize=16;startArrow=none;startFill=0;endArrow=blockThin;endFill=1;" edge="1" parent="1" source="Rl6BkuAQ_NXk-KMuVqWP-6">
                    <mxGeometry relative="1" as="geometry">
                        <mxPoint x="120" y="359.75" as="targetPoint"/>
                    </mxGeometry>
                </mxCell>
                <mxCell id="Rl6BkuAQ_NXk-KMuVqWP-6" value="posedge ?" style="rhombus;whiteSpace=wrap;html=1;fontSize=16;" vertex="1" parent="1">
                    <mxGeometry x="265" y="320" width="150" height="80" as="geometry"/>
                </mxCell>
                <mxCell id="Rl6BkuAQ_NXk-KMuVqWP-12" value="" style="edgeStyle=orthogonalEdgeStyle;html=1;strokeWidth=2;fontSize=16;startArrow=none;startFill=0;endArrow=blockThin;endFill=1;" edge="1" parent="1" source="Rl6BkuAQ_NXk-KMuVqWP-9" target="Rl6BkuAQ_NXk-KMuVqWP-11">
                    <mxGeometry relative="1" as="geometry"/>
                </mxCell>
                <mxCell id="Rl6BkuAQ_NXk-KMuVqWP-9" value="cnt ++" style="whiteSpace=wrap;html=1;fontSize=16;" vertex="1" parent="1">
                    <mxGeometry x="280" y="480" width="120" height="40" as="geometry"/>
                </mxCell>
                <mxCell id="Rl6BkuAQ_NXk-KMuVqWP-14" value="True" style="edgeStyle=orthogonalEdgeStyle;html=1;strokeWidth=2;fontSize=16;startArrow=none;startFill=0;endArrow=blockThin;endFill=1;" edge="1" parent="1" source="Rl6BkuAQ_NXk-KMuVqWP-11" target="Rl6BkuAQ_NXk-KMuVqWP-13">
                    <mxGeometry relative="1" as="geometry"/>
                </mxCell>
                <mxCell id="Rl6BkuAQ_NXk-KMuVqWP-16" value="False" style="edgeStyle=orthogonalEdgeStyle;html=1;exitX=0;exitY=0.5;exitDx=0;exitDy=0;strokeWidth=2;fontSize=16;startArrow=none;startFill=0;endArrow=blockThin;endFill=1;" edge="1" parent="1" source="Rl6BkuAQ_NXk-KMuVqWP-11">
                    <mxGeometry relative="1" as="geometry">
                        <mxPoint x="120" y="599.75" as="targetPoint"/>
                    </mxGeometry>
                </mxCell>
                <mxCell id="Rl6BkuAQ_NXk-KMuVqWP-11" value="cnt == (divisor/2) - 1" style="rhombus;whiteSpace=wrap;html=1;fontSize=16;" vertex="1" parent="1">
                    <mxGeometry x="245" y="560" width="190" height="80" as="geometry"/>
                </mxCell>
                <mxCell id="Rl6BkuAQ_NXk-KMuVqWP-15" style="edgeStyle=orthogonalEdgeStyle;html=1;exitX=0;exitY=0.5;exitDx=0;exitDy=0;entryX=0.5;entryY=0;entryDx=0;entryDy=0;strokeWidth=2;fontSize=16;startArrow=none;startFill=0;endArrow=blockThin;endFill=1;" edge="1" parent="1" source="Rl6BkuAQ_NXk-KMuVqWP-13" target="Rl6BkuAQ_NXk-KMuVqWP-2">
                    <mxGeometry relative="1" as="geometry">
                        <Array as="points">
                            <mxPoint x="120" y="740"/>
                            <mxPoint x="120" y="160"/>
                        </Array>
                    </mxGeometry>
                </mxCell>
                <mxCell id="Rl6BkuAQ_NXk-KMuVqWP-13" value="cnt=0&lt;br&gt;clkout = ~clkout" style="whiteSpace=wrap;html=1;fontSize=16;" vertex="1" parent="1">
                    <mxGeometry x="280" y="720" width="120" height="40" as="geometry"/>
                </mxCell>
                <mxCell id="Rl6BkuAQ_NXk-KMuVqWP-21" value="True" style="edgeStyle=orthogonalEdgeStyle;html=1;strokeWidth=2;fontSize=16;startArrow=none;startFill=0;endArrow=blockThin;endFill=1;" edge="1" parent="1" source="Rl6BkuAQ_NXk-KMuVqWP-18" target="Rl6BkuAQ_NXk-KMuVqWP-20">
                    <mxGeometry relative="1" as="geometry"/>
                </mxCell>
                <mxCell id="Rl6BkuAQ_NXk-KMuVqWP-26" value="False" style="edgeStyle=orthogonalEdgeStyle;html=1;exitX=1;exitY=0.5;exitDx=0;exitDy=0;entryX=0.5;entryY=0;entryDx=0;entryDy=0;strokeWidth=2;fontSize=16;startArrow=none;startFill=0;endArrow=blockThin;endFill=1;" edge="1" parent="1" source="Rl6BkuAQ_NXk-KMuVqWP-18" target="Rl6BkuAQ_NXk-KMuVqWP-2">
                    <mxGeometry relative="1" as="geometry">
                        <Array as="points">
                            <mxPoint x="690" y="200"/>
                            <mxPoint x="690" y="120"/>
                            <mxPoint x="468" y="120"/>
                            <mxPoint x="468" y="160"/>
                        </Array>
                    </mxGeometry>
                </mxCell>
                <mxCell id="Rl6BkuAQ_NXk-KMuVqWP-18" value="posedge or&lt;br&gt;negedge ?" style="rhombus;whiteSpace=wrap;html=1;fontSize=16;" vertex="1" parent="1">
                    <mxGeometry x="520" y="160" width="160" height="80" as="geometry"/>
                </mxCell>
                <mxCell id="Rl6BkuAQ_NXk-KMuVqWP-23" value="" style="edgeStyle=orthogonalEdgeStyle;html=1;strokeWidth=2;fontSize=16;startArrow=none;startFill=0;endArrow=blockThin;endFill=1;" edge="1" parent="1" source="Rl6BkuAQ_NXk-KMuVqWP-20" target="Rl6BkuAQ_NXk-KMuVqWP-22">
                    <mxGeometry relative="1" as="geometry"/>
                </mxCell>
                <mxCell id="Rl6BkuAQ_NXk-KMuVqWP-20" value="cnt++" style="whiteSpace=wrap;html=1;fontSize=16;" vertex="1" parent="1">
                    <mxGeometry x="540" y="320" width="120" height="40" as="geometry"/>
                </mxCell>
                <mxCell id="Rl6BkuAQ_NXk-KMuVqWP-25" value="True" style="edgeStyle=orthogonalEdgeStyle;html=1;strokeWidth=2;fontSize=16;startArrow=none;startFill=0;endArrow=blockThin;endFill=1;" edge="1" parent="1" source="Rl6BkuAQ_NXk-KMuVqWP-22" target="Rl6BkuAQ_NXk-KMuVqWP-24">
                    <mxGeometry relative="1" as="geometry"/>
                </mxCell>
                <mxCell id="Rl6BkuAQ_NXk-KMuVqWP-27" value="False" style="edgeStyle=orthogonalEdgeStyle;html=1;exitX=1;exitY=0.5;exitDx=0;exitDy=0;strokeWidth=2;fontSize=16;startArrow=none;startFill=0;endArrow=blockThin;endFill=1;" edge="1" parent="1" source="Rl6BkuAQ_NXk-KMuVqWP-22">
                    <mxGeometry relative="1" as="geometry">
                        <mxPoint x="690" y="190" as="targetPoint"/>
                    </mxGeometry>
                </mxCell>
                <mxCell id="Rl6BkuAQ_NXk-KMuVqWP-22" value="cnt == divisor -1" style="rhombus;whiteSpace=wrap;html=1;fontSize=16;" vertex="1" parent="1">
                    <mxGeometry x="520" y="400" width="160" height="80" as="geometry"/>
                </mxCell>
                <mxCell id="Rl6BkuAQ_NXk-KMuVqWP-28" style="edgeStyle=orthogonalEdgeStyle;html=1;exitX=1;exitY=0.5;exitDx=0;exitDy=0;strokeWidth=2;fontSize=16;startArrow=none;startFill=0;endArrow=blockThin;endFill=1;" edge="1" parent="1" source="Rl6BkuAQ_NXk-KMuVqWP-24">
                    <mxGeometry relative="1" as="geometry">
                        <mxPoint x="690" y="430" as="targetPoint"/>
                    </mxGeometry>
                </mxCell>
                <mxCell id="Rl6BkuAQ_NXk-KMuVqWP-24" value="cnt = 0&lt;br&gt;clkout = ~clkout" style="whiteSpace=wrap;html=1;fontSize=16;" vertex="1" parent="1">
                    <mxGeometry x="540" y="560" width="120" height="40" as="geometry"/>
                </mxCell>
            </root>
        </mxGraphModel>
    </diagram>
</mxfile>